<?xml version="1.0" standalone="no"?>
<!DOCTYPE svg PUBLIC "-//W3C//DTD SVG 20010904//EN"
 "http://www.w3.org/TR/2001/REC-SVG-20010904/DTD/svg10.dtd">
<svg version="1.0" xmlns="http://www.w3.org/2000/svg"
 width="501.000000pt" height="501.000000pt" viewBox="0 0 501.000000 501.000000"
 preserveAspectRatio="xMidYMid meet">
<metadata>
Created by potrace 1.11, written by Peter Selinger 2001-2013
</metadata>
<g transform="translate(0.000000,501.000000) scale(0.100000,-0.100000)"
fill="#000000" stroke="none">
<path d="M4 3765 l1 -1245 183 -184 c100 -102 182 -188 182 -193 0 -4 -82 -89
-183 -188 l-182 -180 0 -878 c-1 -482 0 -877 2 -877 3 0 1746 432 1803 447 14
3 30 7 35 9 6 1 37 9 70 18 32 9 67 16 78 16 10 0 109 -91 232 -212 117 -117
228 -228 247 -245 l34 -33 248 249 248 248 42 -9 c22 -5 48 -11 56 -13 8 -2
197 -49 420 -105 223 -56 412 -103 420 -105 26 -6 1024 -256 1042 -261 17 -5
18 44 18 873 l0 878 -185 185 -185 185 185 185 185 185 0 1247 0 1248 -497 0
-498 0 374 -374 374 -374 -372 -371 -371 -371 -1506 0 -1506 0 -371 371 -371
370 375 375 374 374 -501 0 -500 0 0 -1245z m1662 -1576 c177 -177 326 -324
330 -328 7 -4 14 -351 8 -351 -1 0 -987 988 -993 995 -2 3 72 5 164 5 l169 0
322 -321z m1844 -174 c-272 -272 -497 -495 -500 -495 -3 0 -5 74 -5 165 l0
165 330 330 330 330 170 0 170 0 -495 -495z"/>
</g>
</svg>
